<svg xmlns="http://www.w3.org/2000/svg" xmlns:xlink="http://www.w3.org/1999/xlink" contentStyleType="text/css" height="435px" preserveAspectRatio="none" style="width:758px;height:435px;background:#FFFFFF;" version="1.1" viewBox="0 0 758 435" width="758px" zoomAndPan="magnify"><defs/><g><!--class File--><g id="elem_File"><rect codeLine="222" fill="#F1F1F1" height="27.6094" id="File" rx="2.5" ry="2.5" style="stroke:#181818;stroke-width:0.5;" width="28.5586" x="151.5" y="19.5"/><text fill="#000000" font-family="sans-serif" font-size="14" font-style="italic" lengthAdjust="spacing" textLength="22.5586" x="154.5" y="39.0332">File</text></g><!--class MainFile--><g id="elem_MainFile"><rect codeLine="224" fill="#F1F1F1" height="106.0469" id="MainFile" rx="2.5" ry="2.5" style="stroke:#181818;stroke-width:0.5;" width="159.8271" x="7" y="138"/><text fill="#000000" font-family="sans-serif" font-size="14" font-style="italic" lengthAdjust="spacing" textLength="52.9033" x="60.4619" y="157.5332">MainFile</text><line style="stroke:#181818;stroke-width:0.5;" x1="8" x2="165.8271" y1="165.6094" y2="165.6094"/><text fill="#000000" font-family="sans-serif" font-size="14" lengthAdjust="spacing" textLength="118.2617" x="27" y="184.1426">A JSON file storing</text><rect fill="none" height="6" style="stroke:#C82930;stroke-width:1.0;" width="6" x="15" y="194.5234"/><text fill="#000000" font-family="sans-serif" font-size="14" lengthAdjust="spacing" textLength="56.041" x="27" y="201.752">all nodes</text><rect fill="none" height="6" style="stroke:#C82930;stroke-width:1.0;" width="6" x="15" y="212.1328"/><text fill="#000000" font-family="sans-serif" font-size="14" lengthAdjust="spacing" textLength="133.8271" x="27" y="219.3613">some or all resources</text><rect fill="none" height="6" style="stroke:#C82930;stroke-width:1.0;" width="6" x="15" y="229.7422"/><text fill="#000000" font-family="sans-serif" font-size="14" lengthAdjust="spacing" textLength="128.3789" x="27" y="236.9707">some or all schemas</text></g><!--class AssetFile--><g id="elem_AssetFile"><rect codeLine="230" fill="#F1F1F1" height="27.6094" id="AssetFile" rx="2.5" ry="2.5" style="stroke:#181818;stroke-width:0.5;" width="63.5723" x="251" y="177"/><text fill="#000000" font-family="sans-serif" font-size="14" font-style="italic" lengthAdjust="spacing" textLength="57.5723" x="254" y="196.5332">AssetFile</text></g><!--class Resource--><g id="elem_Resource"><rect codeLine="236" fill="#F1F1F1" height="53.2188" id="Resource" rx="2.5" ry="2.5" style="stroke:#181818;stroke-width:0.5;" width="65.917" x="424" y="7"/><text fill="#000000" font-family="sans-serif" font-size="14" font-style="italic" lengthAdjust="spacing" textLength="59.917" x="427" y="26.5332">Resource</text><line style="stroke:#181818;stroke-width:0.5;" x1="425" x2="488.917" y1="34.6094" y2="34.6094"/><text fill="#000000" font-family="sans-serif" font-size="14" lengthAdjust="spacing" textLength="51.3584" x="430" y="53.1426">String id</text></g><!--class Representation--><g id="elem_Representation"><rect codeLine="239" fill="#F1F1F1" height="53.2188" id="Representation" rx="2.5" ry="2.5" style="stroke:#181818;stroke-width:0.5;" width="129.5098" x="392" y="164.5"/><text fill="#000000" font-family="sans-serif" font-size="14" font-style="italic" lengthAdjust="spacing" textLength="94.9512" x="409.2793" y="184.0332">Representation</text><line style="stroke:#181818;stroke-width:0.5;" x1="393" x2="520.5098" y1="192.1094" y2="192.1094"/><text fill="#000000" font-family="sans-serif" font-size="14" lengthAdjust="spacing" textLength="117.5098" x="398" y="210.6426">String contentType</text></g><!--class InlineTextContent--><g id="elem_InlineTextContent"><rect codeLine="243" fill="#F1F1F1" height="53.2188" id="InlineTextContent" rx="2.5" ry="2.5" style="stroke:#181818;stroke-width:0.5;" width="115.7305" x="399" y="348.5"/><text fill="#000000" font-family="sans-serif" font-size="14" font-style="italic" lengthAdjust="spacing" textLength="109.7305" x="402" y="368.0332">InlineTextContent</text><line style="stroke:#181818;stroke-width:0.5;" x1="400" x2="513.7305" y1="376.1094" y2="376.1094"/><text fill="#000000" font-family="sans-serif" font-size="14" lengthAdjust="spacing" textLength="86.3857" x="405" y="394.6426">String content</text></g><!--class AssetContent--><g id="elem_AssetContent"><rect codeLine="247" fill="#F1F1F1" height="88.4375" id="AssetContent" rx="2.5" ry="2.5" style="stroke:#181818;stroke-width:0.5;" width="161.4063" x="202.5" y="331"/><text fill="#000000" font-family="sans-serif" font-size="14" font-style="italic" lengthAdjust="spacing" textLength="84.0479" x="241.1792" y="350.5332">AssetContent</text><line style="stroke:#181818;stroke-width:0.5;" x1="203.5" x2="362.9063" y1="358.6094" y2="358.6094"/><text fill="#000000" font-family="sans-serif" font-size="14" lengthAdjust="spacing" textLength="141.627" x="208.5" y="377.1426">// Can be binary or text</text><text fill="#000000" font-family="sans-serif" font-size="14" lengthAdjust="spacing" textLength="149.4063" x="208.5" y="394.752">// usually just a filename</text><text fill="#000000" font-family="sans-serif" font-size="14" lengthAdjust="spacing" textLength="118.2822" x="208.5" y="412.3613">String relativePath;</text></g><!--class RemoteContent--><g id="elem_RemoteContent"><rect codeLine="253" fill="#F1F1F1" height="106.0469" id="RemoteContent" rx="2.5" ry="2.5" style="stroke:#181818;stroke-width:0.5;" width="201.9023" x="550" y="322"/><text fill="#000000" font-family="sans-serif" font-size="14" font-style="italic" lengthAdjust="spacing" textLength="98.0547" x="601.9238" y="341.5332">RemoteContent</text><line style="stroke:#181818;stroke-width:0.5;" x1="551" x2="750.9023" y1="349.6094" y2="349.6094"/><text fill="#000000" font-family="sans-serif" font-size="14" lengthAdjust="spacing" textLength="141.627" x="556" y="368.1426">// Can be binary or text</text><text fill="#000000" font-family="sans-serif" font-size="14" lengthAdjust="spacing" textLength="188.9043" x="556" y="385.752">// by using a "data:" URI, small</text><text fill="#000000" font-family="sans-serif" font-size="14" lengthAdjust="spacing" textLength="189.9023" x="556" y="403.3613">// binary content can be inlined</text><text fill="#000000" font-family="sans-serif" font-size="14" lengthAdjust="spacing" textLength="59.9102" x="556" y="420.9707">String uri;</text></g><!--reverse link File to MainFile--><g id="link_File_MainFile"><path codeLine="232" d="M151.11,63.8092 C141.04,83.6392 129.64,106.06 113.42,138 " fill="none" id="File-backto-MainFile" style="stroke:#181818;stroke-width:1.0;"/><polygon fill="none" points="159.26,47.76,145.7602,61.0925,156.4597,66.5259,159.26,47.76" style="stroke:#181818;stroke-width:1.0;"/></g><!--reverse link File to AssetFile--><g id="link_File_AssetFile"><path codeLine="233" d="M186.8004,62.1447 C208.9004,91.5247 250.97,147.43 273.05,176.78 " fill="none" id="File-backto-AssetFile" style="stroke:#181818;stroke-width:1.0;"/><polygon fill="none" points="175.98,47.76,182.0055,65.7515,191.5953,58.5379,175.98,47.76" style="stroke:#181818;stroke-width:1.0;"/></g><!--reverse link Resource to Representation--><g id="link_Resource_Representation"><path codeLine="260" d="M457,72.18 C457,100.99 457,135.46 457,164.28 " fill="none" id="Resource-backto-Representation" style="stroke:#181818;stroke-width:1.0;"/><polygon fill="#181818" points="457,60.18,453,66.18,457,72.18,461,66.18,457,60.18" style="stroke:#181818;stroke-width:1.0;"/><text fill="#000000" font-family="sans-serif" font-size="13" lengthAdjust="spacing" textLength="64.3081" x="458" y="104.4951">ordered list</text><text fill="#000000" font-family="sans-serif" font-size="13" lengthAdjust="spacing" textLength="21.6836" x="433.7076" y="153.7615">1..n</text></g><!--reverse link Representation to AssetContent--><g id="link_Representation_AssetContent"><path codeLine="261" d="M420.003,230.7024 C391.903,260.1024 357.86,295.7 324.19,330.92 " fill="none" id="Representation-backto-AssetContent" style="stroke:#181818;stroke-width:1.0;"/><polygon fill="none" points="432.44,217.69,415.6656,226.5567,424.3405,234.848,432.44,217.69" style="stroke:#181818;stroke-width:1.0;"/></g><!--reverse link Representation to RemoteContent--><g id="link_Representation_RemoteContent"><path codeLine="262" d="M497.5081,230.0047 C526.2381,256.9547 559.04,287.73 595.41,321.85 " fill="none" id="Representation-backto-RemoteContent" style="stroke:#181818;stroke-width:1.0;"/><polygon fill="none" points="484.38,217.69,493.4032,234.3808,501.613,225.6287,484.38,217.69" style="stroke:#181818;stroke-width:1.0;"/></g><!--reverse link Representation to InlineTextContent--><g id="link_Representation_InlineTextContent"><path codeLine="264" d="M457,235.69 C457,270.38 457,313.82 457,348.44 " fill="none" id="Representation-backto-InlineTextContent" style="stroke:#181818;stroke-width:1.0;"/><polygon fill="none" points="457,217.69,451,235.69,463,235.69,457,217.69" style="stroke:#181818;stroke-width:1.0;"/></g><!--link AssetFile to AssetContent--><g id="link_AssetFile_AssetContent"><path codeLine="265" d="M283,205.09 C283,231.01 283,283.89 283,324.79 " fill="none" id="AssetFile-to-AssetContent" style="stroke:#181818;stroke-width:1.0;"/><polygon fill="#181818" points="283,330.79,287,321.79,283,325.79,279,321.79,283,330.79" style="stroke:#181818;stroke-width:1.0;"/><text fill="#000000" font-family="sans-serif" font-size="13" lengthAdjust="spacing" textLength="31.0781" x="284" y="288.4951">holds</text></g><!--link MainFile to AssetFile--><g id="link_MainFile_AssetFile"><path codeLine="266" d="M167,191 C196.43,191 222.1,191 244.9,191 " fill="none" id="MainFile-to-AssetFile" style="stroke:#181818;stroke-width:1.0;stroke-dasharray:7.0,7.0;"/><polygon fill="#181818" points="250.9,191,241.9,187,245.9,191,241.9,195,250.9,191" style="stroke:#181818;stroke-width:1.0;"/><text fill="#000000" font-family="sans-serif" font-size="13" lengthAdjust="spacing" textLength="47.6836" x="185.5" y="184.4951">refers to</text><text fill="#000000" font-family="sans-serif" font-size="13" lengthAdjust="spacing" textLength="21.6836" x="221.2284" y="206.2217">0..n</text></g><!--SRC=[bLFBJiCm4BpxArOv8jB2DQ1ALIMa8l5GMZx0YRV4ABOhUuE8W7_7SK8Qbrp8AHdFxCpkEfKK2AYEr892LQ1rhEgWKjgoHiUa9hG7NYBSoHhXatrFe0SkzG23VzPmltjwX4E7E39MwjU0fy3h6hGHlbx_xOn2C3RW5frfR3bxvieA5NUHwTevf35CUBdzIjCnp0GQgOnD2kI3uP1wHrrGa29ooV7eWw4cJjBec5eQJzEqRu_eDHFHLjTIunu_QDDJPdMn9cICwSibRBY60g6GcjkscmRveh-7ZMlyS5fuQnm13_FMNE7KocBjWx_ZCwVg9ZRCKHd2_paMhJVjwd9812UU9V2IRo_1AHza9FNIeKie-u8op4HCmpLMXapZ8YxyhfBhnK8dvtFFV1A15WNKqX4xEpqjUMXdbX0rp6OfVnR7JhSiJLVnaZAeJ2qS6s__OWN9LKX_KcL-1GV_Dm4PzWC0]--></g></svg>